<mxfile host="65bd71144e">
    <diagram id="b89R2-BmkH8ADNsfJDQY" name="Page-1">
        <mxGraphModel dx="682" dy="433" grid="1" gridSize="10" guides="1" tooltips="1" connect="1" arrows="1" fold="1" page="1" pageScale="1" pageWidth="850" pageHeight="1100" math="0" shadow="0">
            <root>
                <mxCell id="0"/>
                <mxCell id="1" parent="0"/>
                <mxCell id="4" style="edgeStyle=none;html=1;exitX=0.25;exitY=1;exitDx=0;exitDy=0;" edge="1" parent="1" source="2" target="3">
                    <mxGeometry relative="1" as="geometry"/>
                </mxCell>
                <mxCell id="6" style="edgeStyle=none;html=1;exitX=0.75;exitY=1;exitDx=0;exitDy=0;" edge="1" parent="1" source="2" target="5">
                    <mxGeometry relative="1" as="geometry"/>
                </mxCell>
                <mxCell id="2" value="App" style="whiteSpace=wrap;html=1;" vertex="1" parent="1">
                    <mxGeometry x="330" y="30" width="120" height="60" as="geometry"/>
                </mxCell>
                <mxCell id="11" style="edgeStyle=none;html=1;exitX=0.25;exitY=1;exitDx=0;exitDy=0;entryX=0.587;entryY=0.006;entryDx=0;entryDy=0;entryPerimeter=0;" edge="1" parent="1" source="3" target="7">
                    <mxGeometry relative="1" as="geometry"/>
                </mxCell>
                <mxCell id="12" style="edgeStyle=none;html=1;exitX=0.5;exitY=1;exitDx=0;exitDy=0;entryX=0.5;entryY=0;entryDx=0;entryDy=0;" edge="1" parent="1" source="3" target="8">
                    <mxGeometry relative="1" as="geometry"/>
                </mxCell>
                <mxCell id="13" style="edgeStyle=none;html=1;exitX=0.75;exitY=1;exitDx=0;exitDy=0;" edge="1" parent="1" source="3" target="9">
                    <mxGeometry relative="1" as="geometry"/>
                </mxCell>
                <mxCell id="3" value="Game" style="whiteSpace=wrap;html=1;" vertex="1" parent="1">
                    <mxGeometry x="140" y="150" width="120" height="70" as="geometry"/>
                </mxCell>
                <mxCell id="14" style="edgeStyle=none;html=1;exitX=0.5;exitY=1;exitDx=0;exitDy=0;" edge="1" parent="1" source="5" target="10">
                    <mxGeometry relative="1" as="geometry"/>
                </mxCell>
                <mxCell id="5" value="Header" style="whiteSpace=wrap;html=1;" vertex="1" parent="1">
                    <mxGeometry x="570" y="160" width="120" height="60" as="geometry"/>
                </mxCell>
                <mxCell id="7" value="HighScores" style="whiteSpace=wrap;html=1;" vertex="1" parent="1">
                    <mxGeometry x="10" y="310" width="120" height="60" as="geometry"/>
                </mxCell>
                <mxCell id="8" value="Settings" style="whiteSpace=wrap;html=1;" vertex="1" parent="1">
                    <mxGeometry x="180" y="310" width="120" height="60" as="geometry"/>
                </mxCell>
                <mxCell id="9" value="GamePlayer" style="whiteSpace=wrap;html=1;" vertex="1" parent="1">
                    <mxGeometry x="350" y="310" width="120" height="60" as="geometry"/>
                </mxCell>
                <mxCell id="10" value="NavBar" style="whiteSpace=wrap;html=1;" vertex="1" parent="1">
                    <mxGeometry x="620" y="300" width="120" height="60" as="geometry"/>
                </mxCell>
                <mxCell id="15" value="Header" style="whiteSpace=wrap;html=1;" vertex="1" parent="1">
                    <mxGeometry x="470" y="430" width="330" height="100" as="geometry"/>
                </mxCell>
                <mxCell id="16" value="Game" style="whiteSpace=wrap;html=1;" vertex="1" parent="1">
                    <mxGeometry x="470" y="530" width="330" height="260" as="geometry"/>
                </mxCell>
                <mxCell id="18" style="edgeStyle=none;html=1;exitX=0.5;exitY=0;exitDx=0;exitDy=0;" edge="1" parent="1" source="17" target="15">
                    <mxGeometry relative="1" as="geometry"/>
                </mxCell>
                <mxCell id="17" value="NavBar" style="whiteSpace=wrap;html=1;" vertex="1" parent="1">
                    <mxGeometry x="470" y="500" width="330" height="30" as="geometry"/>
                </mxCell>
            </root>
        </mxGraphModel>
    </diagram>
</mxfile>